<svg width="284" height="120" viewBox="0 0 284 120" fill="none" xmlns="http://www.w3.org/2000/svg">
<path d="M157.262 80H149.693V50.6055H140.001V44.3066H166.954V50.6055H157.262V80ZM187.096 52.1924C187.47 52.1924 187.901 52.2168 188.39 52.2656C188.894 52.2982 189.301 52.347 189.61 52.4121L189.049 59.3945C188.805 59.3132 188.455 59.2562 187.999 59.2236C187.56 59.1748 187.177 59.1504 186.852 59.1504C185.891 59.1504 184.955 59.2725 184.044 59.5166C183.149 59.7607 182.343 60.1595 181.627 60.7129C180.911 61.25 180.341 61.9661 179.918 62.8613C179.511 63.7402 179.308 64.8226 179.308 66.1084V80H171.861V52.7051H177.501L178.6 57.2949H178.966C179.503 56.3672 180.17 55.5208 180.968 54.7559C181.782 53.9746 182.701 53.3561 183.727 52.9004C184.768 52.4284 185.891 52.1924 187.096 52.1924ZM202.013 52.7051V80H194.566V52.7051H202.013ZM198.302 42.0117C199.409 42.0117 200.361 42.2721 201.158 42.793C201.956 43.2975 202.354 44.2497 202.354 45.6494C202.354 47.0329 201.956 47.9932 201.158 48.5303C200.361 49.0511 199.409 49.3115 198.302 49.3115C197.179 49.3115 196.218 49.0511 195.421 48.5303C194.64 47.9932 194.249 47.0329 194.249 45.6494C194.249 44.2497 194.64 43.2975 195.421 42.793C196.218 42.2721 197.179 42.0117 198.302 42.0117ZM225.035 52.1924C228.111 52.1924 230.593 53.3887 232.481 55.7812C234.386 58.1738 235.338 61.6813 235.338 66.3037C235.338 69.3962 234.89 72.0003 233.995 74.1162C233.1 76.2158 231.863 77.8027 230.284 78.877C228.705 79.9512 226.891 80.4883 224.84 80.4883C223.521 80.4883 222.39 80.3255 221.446 80C220.502 79.6582 219.697 79.2269 219.029 78.7061C218.362 78.1689 217.784 77.5993 217.296 76.9971H216.905C217.035 77.6481 217.133 78.3154 217.198 78.999C217.263 79.6826 217.296 80.3499 217.296 81.001V92.0117H209.85V52.7051H215.904L216.954 56.2451H217.296C217.784 55.5127 218.378 54.8372 219.078 54.2188C219.778 53.6003 220.616 53.112 221.593 52.7539C222.586 52.3796 223.733 52.1924 225.035 52.1924ZM222.643 58.1494C221.34 58.1494 220.307 58.418 219.542 58.9551C218.777 59.4922 218.215 60.2979 217.857 61.3721C217.516 62.4463 217.328 63.8053 217.296 65.4492V66.2549C217.296 68.0127 217.459 69.502 217.784 70.7227C218.126 71.9434 218.688 72.8711 219.469 73.5059C220.266 74.1406 221.357 74.458 222.74 74.458C223.88 74.458 224.815 74.1406 225.548 73.5059C226.28 72.8711 226.826 71.9434 227.184 70.7227C227.558 69.4857 227.745 67.9801 227.745 66.2061C227.745 63.5368 227.33 61.5267 226.5 60.1758C225.67 58.8249 224.384 58.1494 222.643 58.1494ZM248.937 52.7051V80H241.49V52.7051H248.937ZM245.226 42.0117C246.332 42.0117 247.285 42.2721 248.082 42.793C248.88 43.2975 249.278 44.2497 249.278 45.6494C249.278 47.0329 248.88 47.9932 248.082 48.5303C247.285 49.0511 246.332 49.3115 245.226 49.3115C244.103 49.3115 243.142 49.0511 242.345 48.5303C241.563 47.9932 241.173 47.0329 241.173 45.6494C241.173 44.2497 241.563 43.2975 242.345 42.793C243.142 42.2721 244.103 42.0117 245.226 42.0117ZM281.578 66.3037C281.578 68.5824 281.269 70.6006 280.65 72.3584C280.048 74.1162 279.161 75.6055 277.989 76.8262C276.834 78.0306 275.434 78.9421 273.79 79.5605C272.162 80.179 270.323 80.4883 268.272 80.4883C266.352 80.4883 264.586 80.179 262.975 79.5605C261.38 78.9421 259.988 78.0306 258.8 76.8262C257.628 75.6055 256.716 74.1162 256.065 72.3584C255.431 70.6006 255.113 68.5824 255.113 66.3037C255.113 63.2764 255.65 60.7129 256.725 58.6133C257.799 56.5137 259.329 54.9186 261.314 53.8281C263.3 52.7376 265.668 52.1924 268.419 52.1924C270.974 52.1924 273.237 52.7376 275.206 53.8281C277.192 54.9186 278.746 56.5137 279.869 58.6133C281.008 60.7129 281.578 63.2764 281.578 66.3037ZM262.706 66.3037C262.706 68.0941 262.901 69.5996 263.292 70.8203C263.683 72.041 264.293 72.9606 265.123 73.5791C265.953 74.1976 267.035 74.5068 268.37 74.5068C269.688 74.5068 270.755 74.1976 271.568 73.5791C272.398 72.9606 273.001 72.041 273.375 70.8203C273.766 69.5996 273.961 68.0941 273.961 66.3037C273.961 64.4971 273.766 62.9997 273.375 61.8115C273.001 60.6071 272.398 59.7038 271.568 59.1016C270.738 58.4993 269.656 58.1982 268.321 58.1982C266.352 58.1982 264.92 58.8737 264.024 60.2246C263.146 61.5755 262.706 63.6019 262.706 66.3037Z" fill="black"/>
<path fill-rule="evenodd" clip-rule="evenodd" d="M15 0C6.71582 0 0 6.71582 0 15V65C0 73.2842 6.71582 80 15 80H40V55C40 46.7158 46.7158 40 55 40H80V15C80 6.71582 73.2842 0 65 0H15Z" fill="#5599FF"/>
<path fill-rule="evenodd" clip-rule="evenodd" d="M40 80V105C40 113.284 46.7158 120 55 120H105C113.284 120 120 113.284 120 105V55C120 46.7158 113.284 40 105 40H80V65C80 73.2842 73.2842 80 65 80H40Z" fill="#C78EFF"/>
</svg>
